<?xml version="1.0" encoding="utf-8"?>
<!-- Generator: Adobe Illustrator 16.0.0, SVG Export Plug-In . SVG Version: 6.00 Build 0)  -->
<!DOCTYPE svg PUBLIC "-//W3C//DTD SVG 1.1//EN" "http://www.w3.org/Graphics/SVG/1.1/DTD/svg11.dtd">
<svg version="1.1" id="Layer_1" xmlns="http://www.w3.org/2000/svg" xmlns:xlink="http://www.w3.org/1999/xlink" x="0px" y="0px"
	 width="12.766px" height="16px" viewBox="0 0 12.766 16" enable-background="new 0 0 12.766 16" xml:space="preserve">
<g id="Layer_3">
	<polygon fill="#FFFFFF" points="12.449,3.729 12.48,16 0.491,16 0.47,0 8.9,0 	"/>
</g>
<g id="Layer_1_1_">
	<g>
		<g>
			<path fill="#8967AC" d="M12.676,3.503L9.244,0.071c-0.017-0.018-0.053-0.035-0.07-0.053C9.156,0.018,9.156,0,9.138,0H9.12
				c0,0,0,0-0.018,0c0,0,0,0-0.019,0C9.067,0,9.049,0,9.031,0H0.285C0.125,0,0,0.125,0,0.285v15.43C0,15.876,0.125,16,0.285,16
				H12.48c0.162,0,0.285-0.124,0.285-0.285V3.698C12.765,3.627,12.729,3.556,12.676,3.503z M9.315,0.942l2.471,2.471H9.315V0.942z
				 M12.196,15.413H0.569V0.551h8.195v3.164C8.765,3.875,8.889,4,9.049,4h3.165v11.413H12.196z"/>
		</g>
	</g>
	<g>
		<g>
			<path fill="#8967AC" d="M9.894,6.141H9.239c-0.087,0-0.174,0.043-0.24,0.11L8.388,6.86V6.096c0-0.195-0.152-0.348-0.351-0.348
				H7.625c0.458-0.262,0.765-0.742,0.765-1.309c0-0.829-0.678-1.483-1.506-1.483c-0.653,0-1.221,0.436-1.418,1.024
				C5.269,3.392,4.701,2.956,4.047,2.956c-0.829,0-1.482,0.675-1.482,1.483c0,0.567,0.306,1.047,0.764,1.309H2.891
				c-0.196,0-0.35,0.153-0.35,0.348v3.208c0,0.195,0.153,0.348,0.35,0.348h5.126c0.196,0,0.35-0.151,0.35-0.348V8.54l0.61,0.61
				C9.043,9.215,9.13,9.26,9.217,9.26h0.655c0.196,0,0.35-0.152,0.35-0.351V6.511C10.243,6.293,10.09,6.141,9.894,6.141z
				 M6.904,3.631c0.437,0,0.807,0.349,0.807,0.808c0,0.436-0.349,0.807-0.807,0.807c-0.437,0-0.806-0.35-0.806-0.807
				C6.098,4.003,6.469,3.631,6.904,3.631z M5.487,4.897c0.109,0.371,0.371,0.655,0.698,0.851H4.789
				C5.116,5.574,5.356,5.268,5.487,4.897z M3.262,4.439c0-0.437,0.349-0.808,0.807-0.808c0.437,0,0.808,0.349,0.808,0.808
				c0,0.436-0.35,0.807-0.808,0.807C3.632,5.247,3.262,4.875,3.262,4.439z M7.69,8.954H3.262V6.446H7.69V8.954z M9.544,8.54H9.37
				L8.519,7.689l0.851-0.85h0.174V8.54z"/>
		</g>
	</g>
</g>
<g id="Layer_4">
</g>
<g>
	<path d="M3.515,10.936h1.291c0.438,0,0.777,0.157,1.019,0.472c0.215,0.285,0.323,0.648,0.323,1.093
		c0,0.343-0.064,0.652-0.191,0.929c-0.224,0.49-0.609,0.734-1.156,0.734H3.515V10.936z M4.719,13.79
		c0.145,0,0.264-0.016,0.356-0.047c0.167-0.057,0.302-0.167,0.408-0.329c0.085-0.131,0.146-0.298,0.183-0.501
		c0.021-0.122,0.033-0.234,0.033-0.339c0-0.399-0.078-0.71-0.233-0.932c-0.155-0.221-0.406-0.331-0.751-0.331H3.957v2.479H4.719z"/>
	<path d="M7.001,10.936l0.928,2.749l0.916-2.749h0.49l-1.178,3.228H7.693l-1.176-3.228H7.001z"/>
</g>
</svg>
