<?xml version="1.0" encoding="utf-8"?>
<!-- Generator: Adobe Illustrator 16.0.0, SVG Export Plug-In . SVG Version: 6.00 Build 0)  -->
<!DOCTYPE svg PUBLIC "-//W3C//DTD SVG 1.1//EN" "http://www.w3.org/Graphics/SVG/1.1/DTD/svg11.dtd">
<svg version="1.1" xmlns="http://www.w3.org/2000/svg" xmlns:xlink="http://www.w3.org/1999/xlink" x="0px" y="0px"
	 width="12.766px" height="16px" viewBox="0 0 12.766 16" enable-background="new 0 0 12.766 16" xml:space="preserve">
<g id="Layer_1">
</g>
<g id="Layer_2">
	<g id="Layer_4">
		<g>
			<g>
				<g>
					<g>
						<path fill="#808080" d="M12.676,3.52L9.244,0.088C9.191,0.035,9.12,0,9.032,0H0.285C0.124,0,0,0.123,0,0.283v15.433
							C0,15.875,0.124,16,0.285,16H12.48c0.16,0,0.285-0.125,0.285-0.284V3.714C12.766,3.643,12.729,3.572,12.676,3.52z
							 M9.316,0.959l2.471,2.473H9.316V0.959z M12.195,15.434H0.569V0.568h8.178V3.73c0,0.162,0.125,0.287,0.285,0.287h3.164
							L12.195,15.434L12.195,15.434z"/>
					</g>
				</g>
			</g>
		</g>
	</g>
	<g>
		<path d="M3.277,11.343h0.448v3.278H3.277V11.343z"/>
		<path d="M6.829,11.343v0.391H5.725v2.888H5.276v-2.888H4.171v-0.391H6.829z"/>
		<path d="M7.527,13.563c0.01,0.186,0.052,0.337,0.127,0.453c0.142,0.217,0.392,0.325,0.75,0.325c0.161,0,0.307-0.023,0.438-0.071
			c0.255-0.092,0.383-0.257,0.383-0.495c0-0.179-0.054-0.306-0.162-0.382c-0.11-0.074-0.281-0.139-0.515-0.194l-0.43-0.1
			c-0.281-0.065-0.48-0.138-0.597-0.217c-0.202-0.137-0.303-0.342-0.303-0.613c0-0.295,0.099-0.537,0.298-0.726
			c0.198-0.188,0.479-0.283,0.842-0.283c0.334,0,0.619,0.083,0.853,0.249c0.233,0.165,0.351,0.431,0.351,0.795H9.145
			c-0.021-0.176-0.067-0.31-0.137-0.403c-0.13-0.172-0.35-0.257-0.661-0.257c-0.251,0-0.432,0.055-0.542,0.165
			s-0.165,0.238-0.165,0.384c0,0.16,0.065,0.278,0.195,0.353c0.085,0.048,0.277,0.107,0.577,0.179l0.445,0.104
			c0.215,0.051,0.38,0.12,0.497,0.208c0.202,0.153,0.303,0.375,0.303,0.667c0,0.363-0.128,0.622-0.386,0.778
			c-0.257,0.156-0.557,0.234-0.897,0.234c-0.397,0-0.709-0.104-0.934-0.312c-0.225-0.206-0.335-0.487-0.331-0.841H7.527z"/>
	</g>
</g>
</svg>
