<?xml version="1.0" encoding="utf-8"?>
<!-- Generator: Adobe Illustrator 16.0.0, SVG Export Plug-In . SVG Version: 6.00 Build 0)  -->
<!DOCTYPE svg PUBLIC "-//W3C//DTD SVG 1.1//EN" "http://www.w3.org/Graphics/SVG/1.1/DTD/svg11.dtd">
<svg version="1.1" id="Layer_1" xmlns="http://www.w3.org/2000/svg" xmlns:xlink="http://www.w3.org/1999/xlink" x="0px" y="0px"
	 width="12.766px" height="16px" viewBox="0 0 12.766 16" enable-background="new 0 0 12.766 16" xml:space="preserve">
<g id="Layer_3">
	<polygon fill="#FFFFFF" points="12.286,3.729 12.316,16 0.327,16 0.306,0 8.736,0 	"/>
</g>
<g id="Layer_1_1_">
	<g>
		<g>
			<g>
				<g>
					<g>
						<g>
							<path fill="#009245" d="M12.676,3.52L9.244,0.088C9.191,0.035,9.12,0,9.032,0H0.284C0.124,0,0,0.123,0,0.283v15.433
								C0,15.875,0.124,16,0.284,16h12.195c0.16,0,0.285-0.125,0.285-0.284V3.714C12.765,3.643,12.729,3.572,12.676,3.52z
								 M9.316,0.959l2.471,2.472H9.316V0.959z M12.195,15.434H0.569V0.569h8.178v3.162c0,0.162,0.125,0.286,0.285,0.286h3.163
								V15.434z"/>
						</g>
					</g>
				</g>
			</g>
			<g>
				<g>
					<path fill="#009245" d="M9.69,4.521H3.058c-0.183,0-0.324,0.126-0.324,0.289v4.98c0,0.162,0.143,0.29,0.324,0.29H9.71
						c0.183,0,0.322-0.128,0.322-0.29V4.81C10.013,4.647,9.872,4.521,9.69,4.521z M6.05,9.501H3.362V8.415H6.05V9.501z M6.05,7.854
						H3.362V6.767H6.05V7.854z M6.05,6.188H3.362V5.101H6.05V6.188z M9.386,9.501h-2.69V8.415h2.688v1.086H9.386z M9.386,7.854
						h-2.69V6.767h2.688v1.087H9.386z M9.386,6.188h-2.69V5.101h2.688v1.087H9.386z"/>
				</g>
			</g>
		</g>
	</g>
</g>
<g id="Layer_4">
</g>
<rect x="0.569" y="11.333" fill="none" width="11.626" height="6.08"/>
<text transform="matrix(1 0 0 1 1.8801 14.5684)" font-family="'Helvetica'" font-size="4.5">SAV</text>
</svg>
