<?xml version="1.0" encoding="utf-8"?>
<!-- Generator: Adobe Illustrator 16.0.0, SVG Export Plug-In . SVG Version: 6.00 Build 0)  -->
<!DOCTYPE svg PUBLIC "-//W3C//DTD SVG 1.1//EN" "http://www.w3.org/Graphics/SVG/1.1/DTD/svg11.dtd">
<svg version="1.1" xmlns="http://www.w3.org/2000/svg" xmlns:xlink="http://www.w3.org/1999/xlink" x="0px" y="0px"
	 width="12.765px" height="16px" viewBox="0 0 12.765 16" enable-background="new 0 0 12.765 16" xml:space="preserve">
<g id="Layer_1">
	<g>
		<g>
			<g>
				<path fill="#FFD105" d="M12.675,3.52L9.244,0.088C9.191,0.035,9.121,0,9.032,0H0.285C0.124,0,0,0.123,0,0.283v15.433
					C0,15.875,0.124,16,0.285,16H12.48c0.16,0,0.285-0.125,0.285-0.284V3.714C12.765,3.643,12.73,3.572,12.675,3.52z M9.316,0.959
					l2.471,2.472H9.316V0.959z M12.195,15.433H0.569V0.569h8.178v3.162c0,0.162,0.126,0.286,0.285,0.286h3.163V15.433z"/>
			</g>
		</g>
		<g>
			<g>
				<path fill="#FFD105" d="M8.275,4.371c0-0.017-0.018-0.033-0.018-0.05C8.275,4.321,8.275,4.338,8.275,4.371
					C8.275,4.354,8.275,4.371,8.275,4.371z"/>
			</g>
			<g>
				<g>
					<path fill="#FFD105" d="M8.275,4.371c0-0.017-0.018-0.033-0.018-0.05S8.242,4.289,8.242,4.272S8.225,4.256,8.225,4.239
						L8.208,4.224L8.193,4.206L8.175,4.189l0,0c-0.017,0-0.017-0.017-0.033-0.017C8.126,4.156,8.093,4.156,8.078,4.156
						c-0.018,0-0.034,0-0.051,0c-0.016,0-0.033,0-0.049,0c0,0,0,0-0.017,0L4.995,4.898c-0.017,0-0.017,0-0.033,0
						c-0.017,0-0.017,0-0.034,0.017C4.896,4.932,4.862,4.948,4.83,4.98C4.812,4.997,4.812,4.997,4.796,5.015
						C4.78,5.03,4.78,5.03,4.78,5.047l0,0c0,0.017-0.016,0.033-0.016,0.05c0,0.016,0,0.033,0,0.065v2.737
						c-0.148-0.083-0.33-0.133-0.512-0.133c-0.577,0-1.038,0.461-1.038,1.038s0.461,1.039,1.038,1.039
						c0.578,0,1.039-0.462,1.039-1.039V5.377l2.457-0.61v2.407c-0.148-0.083-0.33-0.133-0.512-0.133
						c-0.576,0-1.038,0.462-1.038,1.039S6.66,9.118,7.236,9.118c0.577,0,1.039-0.461,1.039-1.038V4.42
						C8.291,4.403,8.291,4.388,8.275,4.371z M4.269,9.333c-0.28,0-0.511-0.231-0.511-0.512s0.23-0.511,0.511-0.511
						S4.78,8.541,4.78,8.821S4.549,9.333,4.269,9.333z M7.251,8.574c-0.279,0-0.51-0.23-0.51-0.512c0-0.279,0.23-0.51,0.51-0.51
						c0.281,0,0.512,0.23,0.512,0.51C7.763,8.344,7.533,8.574,7.251,8.574z"/>
				</g>
			</g>
		</g>
	</g>
</g>
<g id="Layer_2">
	<rect x="0.57" y="11.333" fill="none" width="11.626" height="6.08"/>
	<text transform="matrix(1 0 0 1 0.8843 14.5684)" font-family="'Helvetica'" font-size="4.5">WMA</text>
</g>
</svg>
