<?xml version="1.0" encoding="utf-8"?>
<!-- Generator: Adobe Illustrator 16.0.0, SVG Export Plug-In . SVG Version: 6.00 Build 0)  -->
<!DOCTYPE svg PUBLIC "-//W3C//DTD SVG 1.1//EN" "http://www.w3.org/Graphics/SVG/1.1/DTD/svg11.dtd">
<svg version="1.1" id="Layer_2" xmlns="http://www.w3.org/2000/svg" xmlns:xlink="http://www.w3.org/1999/xlink" x="0px" y="0px"
	 width="16px" height="16px" viewBox="299.812 389.75 16 16" enable-background="new 299.812 389.75 16 16" xml:space="preserve">
<path fill="#010101" d="M847.021,724.283H671.48V560.035c0,0,1.615-61.262-63.006-60.631s-68.348,60.631-68.348,60.631v164.248
	H364.599c0,0-64.492,0.282-64.786,60.631c-0.306,60.356,64.786,62.29,64.786,62.29h175.528v164.261c0,0,0.299,60.35,64.792,60.631
	c64.499,0.281,66.562-60.631,66.562-60.631V847.204H847.02c0,0,65.466,1.499,64.787-58.973
	C911.127,727.766,847.021,724.283,847.021,724.283z"/>
<path fill="#010101" d="M312.857,396.464h-3.672v-3.435c0,0,0.034-1.281-1.317-1.269c-1.352,0.014-1.43,1.269-1.43,1.269v3.435
	h-3.671c0,0-1.349,0.006-1.355,1.268c-0.007,1.263,1.355,1.303,1.355,1.303h3.671v3.436c0,0,0.006,1.263,1.355,1.269
	c1.349,0.006,1.392-1.269,1.392-1.269v-3.436h3.672c0,0,1.369,0.032,1.355-1.232C314.197,396.537,312.857,396.464,312.857,396.464z"
	/>
</svg>
