<?xml version="1.0" encoding="utf-8"?>
<!-- Generator: Adobe Illustrator 16.0.0, SVG Export Plug-In . SVG Version: 6.00 Build 0)  -->
<!DOCTYPE svg PUBLIC "-//W3C//DTD SVG 1.1//EN" "http://www.w3.org/Graphics/SVG/1.1/DTD/svg11.dtd">
<svg version="1.1" id="Layer_1" xmlns="http://www.w3.org/2000/svg" xmlns:xlink="http://www.w3.org/1999/xlink" x="0px" y="0px"
	 width="16px" height="16px" viewBox="-12.5 44.5 16 16" enable-background="new -12.5 44.5 16 16" xml:space="preserve">
<path d="M0.915,47.086c-0.78-0.781-2.048-0.781-2.828,0L-4.5,49.673l-2.585-2.587c-0.78-0.781-2.048-0.781-2.829,0
	c-0.781,0.782-0.781,2.048,0,2.828l2.585,2.585l-2.585,2.587c-0.781,0.78-0.781,2.046,0,2.828C-9.523,58.304-9.012,58.5-8.5,58.5
	c0.513,0,1.024-0.196,1.415-0.586l2.585-2.587l2.586,2.587C-1.522,58.304-1.011,58.5-0.5,58.5c0.512,0,1.024-0.196,1.415-0.586
	c0.781-0.782,0.781-2.048,0-2.828l-2.584-2.587l2.584-2.585C1.696,49.134,1.696,47.868,0.915,47.086z"/>
</svg>
