<?xml version="1.0" encoding="utf-8"?>
<!-- Generator: Adobe Illustrator 16.0.0, SVG Export Plug-In . SVG Version: 6.00 Build 0)  -->
<!DOCTYPE svg PUBLIC "-//W3C//DTD SVG 1.1//EN" "http://www.w3.org/Graphics/SVG/1.1/DTD/svg11.dtd">
<svg version="1.1" id="Layer_1" xmlns="http://www.w3.org/2000/svg" xmlns:xlink="http://www.w3.org/1999/xlink" x="0px" y="0px"
	 width="24px" height="24px" viewBox="0 0 24 24" enable-background="new 0 0 24 24" xml:space="preserve">
<g>
	<path fill="#FFFFFF" d="M12,23.5C5.659,23.5,0.5,18.341,0.5,12C0.5,5.659,5.659,0.5,12,0.5c6.341,0,11.5,5.159,11.5,11.5
		C23.5,18.341,18.341,23.5,12,23.5z"/>
	<path d="M12,1c6.065,0,11,4.935,11,11s-4.935,11-11,11S1,18.065,1,12S5.935,1,12,1 M12,0C5.373,0,0,5.373,0,12
		c0,6.627,5.373,12,12,12c6.627,0,12-5.373,12-12C24,5.373,18.627,0,12,0L12,0z"/>
</g>
<path fill="#2FA38C" d="M10.155,17.372L10.155,17.372c-0.396,0-0.773-0.157-1.052-0.436l-4.078-4.077
	c-0.58-0.582-0.58-1.522,0-2.104c0.581-0.581,1.522-0.581,2.103,0l3.026,3.027l6.718-6.72c0.581-0.581,1.521-0.58,2.102,0
	c0.581,0.581,0.581,1.522,0,2.103l-7.768,7.771C10.927,17.215,10.549,17.372,10.155,17.372z"/>
</svg>
