<?xml version="1.0" encoding="utf-8"?>
<!-- Generator: Adobe Illustrator 16.0.0, SVG Export Plug-In . SVG Version: 6.00 Build 0)  -->
<!DOCTYPE svg PUBLIC "-//W3C//DTD SVG 1.1//EN" "http://www.w3.org/Graphics/SVG/1.1/DTD/svg11.dtd">
<svg version="1.1" id="Layer_1" xmlns="http://www.w3.org/2000/svg" xmlns:xlink="http://www.w3.org/1999/xlink" x="0px" y="0px"
	 width="24px" height="24.076px" viewBox="468 264.375 24 24.076" enable-background="new 468 264.375 24 24.076"
	 xml:space="preserve">
<text transform="matrix(1 0 0 1 948 544.375)" font-family="'MyriadPro-Regular'" font-size="12">      vertical-align text-top</text>
<text transform="matrix(1 0 0 1 948 544.375)" font-family="'MyriadPro-Regular'" font-size="12">      vertical-align text-top</text>
<g>
	<path d="M489.976,278.907h-1.951c-0.288,0-0.411,0.123-0.411,0.412v4.051h-15.226v-4.051c0-0.289-0.124-0.412-0.412-0.412h-1.95
		c-0.289,0-0.525,0.123-0.525,0.412v3.45c0,0.289,0,0.761,0,1.05v1.951c0,0.287,0.236,0.487,0.525,0.487h1.95
		c0.289,0,0.761,0,1.05,0h13.951c0.289,0,0.762,0,1.05,0h1.95c0.288,0,0.524-0.2,0.524-0.487v-1.951c0-0.289,0-0.761,0-1.05v-3.45
		C490.5,279.03,490.264,278.907,489.976,278.907z"/>
	<path d="M481.574,267.131c0-0.289-0.311-0.562-0.6-0.562h-1.95c-0.289,0-0.6,0.274-0.6,0.562v5.475H474l6,7.501l6-7.501h-4.426
		V267.131z"/>
</g>
</svg>
