<?xml version="1.0" encoding="utf-8"?>
<!-- Generator: Adobe Illustrator 16.0.0, SVG Export Plug-In . SVG Version: 6.00 Build 0)  -->
<!DOCTYPE svg PUBLIC "-//W3C//DTD SVG 1.1//EN" "http://www.w3.org/Graphics/SVG/1.1/DTD/svg11.dtd">
<svg version="1.1" id="Your_Icon" xmlns="http://www.w3.org/2000/svg" xmlns:xlink="http://www.w3.org/1999/xlink" x="0px" y="0px"
	 width="100px" height="100px" viewBox="0 0 100 100" enable-background="new 0 0 100 100" xml:space="preserve">
<path d="M52.944,44.111h-6.889c-2.556,0-4.556,2.111-4.556,4.556v29.222c0,2.556,2,4.556,4.556,4.556h6.889
	c2.556,0,4.556-2.111,4.556-4.556V48.667C57.389,46.111,55.389,44.111,52.944,44.111L52.944,44.111z M49.389,17.667
	c-5.223,0-9.333,4.222-9.333,9.445c0,5.222,4.222,9.444,9.333,9.444c5.222,0,9.444-4.222,9.444-9.444
	C58.944,21.889,54.723,17.667,49.389,17.667L49.389,17.667z M49.5,0c-27.556,0-50,22.444-50,50s22.444,50,50,50s50-22.444,50-50
	S77.056,0,49.5,0L49.5,0z M49.5,92.556C26.056,92.556,6.944,73.444,6.944,50c0-23.333,19.111-42.444,42.556-42.444
	c23.333,0,42.444,19.111,42.444,42.444C91.944,73.444,72.833,92.556,49.5,92.556z"/>
</svg>
