<?xml version="1.0" encoding="utf-8"?>
<!-- Generator: Adobe Illustrator 16.0.0, SVG Export Plug-In . SVG Version: 6.00 Build 0)  -->
<!DOCTYPE svg PUBLIC "-//W3C//DTD SVG 1.1//EN" "http://www.w3.org/Graphics/SVG/1.1/DTD/svg11.dtd">
<svg version="1.1" id="Layer_1" xmlns="http://www.w3.org/2000/svg" xmlns:xlink="http://www.w3.org/1999/xlink" x="0px" y="0px"
	 width="16px" height="16px" viewBox="0 0 16 16" enable-background="new 0 0 16 16" xml:space="preserve">
<g>
	<path d="M-0.001,11.693v3.724c0,0.228,0.152,0.38,0.38,0.38H3.95c0.228,0,0.418-0.19,0.418-0.418v-3.724
		c0-0.228-0.19-0.418-0.418-0.418H0.378C0.15,11.237-0.001,11.465-0.001,11.693z"/>
	<path d="M5.698,11.655v3.724c0,0.228,0.19,0.418,0.418,0.418h3.381c0.228,0,0.38-0.152,0.38-0.38v-3.724
		c0-0.229-0.152-0.456-0.38-0.456h-3.4C5.869,11.237,5.698,11.428,5.698,11.655z M8.791,12.552v1.957H6.929v-1.957H8.791z"/>
	<path d="M11.242,11.655v3.724c0,0.228,0.19,0.418,0.417,0.418h3.5c0.228,0,0.418-0.19,0.418-0.418v-3.724
		c0-0.228-0.19-0.418-0.418-0.418H11.64C11.432,11.237,11.242,11.428,11.242,11.655z M14.338,12.552v1.957h-1.862v-1.957H14.338z"/>
	<path d="M2.085,3.376l-0.76-0.361c-0.532-0.247-1.14,0.152-1.083,0.741l0.399,5.092c0.038,0.551,0.665,0.854,1.14,0.551
		l4.046-2.774c0.551-0.38,0.494-1.216-0.114-1.5L4.972,4.763c-0.19-0.096-0.247-0.342-0.114-0.494
		C5.846,3.091,7.309,2.35,8.961,2.35c2.242,0,4.161,1.387,4.959,3.325c0.171,0.398,0.532,0.684,0.95,0.702
		c0.779,0.038,1.349-0.74,1.044-1.463c-1.102-2.754-3.818-4.711-6.972-4.711c-2.432,0-4.578,1.158-5.965,2.944
		C2.769,3.433,2.408,3.528,2.085,3.376z"/>
</g>
</svg>
