<?xml version="1.0" encoding="utf-8"?>
<!-- Generator: Adobe Illustrator 16.0.0, SVG Export Plug-In . SVG Version: 6.00 Build 0)  -->
<!DOCTYPE svg PUBLIC "-//W3C//DTD SVG 1.1//EN" "http://www.w3.org/Graphics/SVG/1.1/DTD/svg11.dtd">
<svg version="1.1" id="Layer_1" xmlns="http://www.w3.org/2000/svg" xmlns:xlink="http://www.w3.org/1999/xlink" x="0px" y="0px"
	 width="17px" height="16px" viewBox="0 0 17 16" enable-background="new 0 0 17 16" xml:space="preserve">
<g>
	<g id="XMLID_1_">
		<g>
			<g>
				<path fill="#010101" d="M14.572,9.971c0.667,0.679,0.563,1.282,0.438,1.574c-0.407,1.001-2.251,1.428-4.241,1.573
					c-0.011-0.302-0.084-0.594-0.219-0.875c-0.094-0.198-0.282-0.312-0.501-0.302c-1.001,0.052-2.126,0.052-3.126,0
					c-0.219-0.011-0.417,0.104-0.5,0.302c-0.135,0.281-0.208,0.573-0.219,0.875c-1.98-0.156-3.793-0.583-4.199-1.573
					c-0.125-0.292-0.229-0.896,0.437-1.574c0.833-0.833,1.011-2.25,1.199-3.761c0.302-2.501,0.677-5.617,4.846-5.721
					c4.21,0.104,4.585,3.22,4.887,5.721C13.562,7.72,13.739,9.138,14.572,9.971z M13.666,11.056
					c-0.021-0.021-0.053-0.053-0.084-0.095c-1.177-1.167-1.385-2.907-1.594-4.584c-0.344-2.825-0.677-4.419-3.501-4.492
					C5.705,1.958,5.371,3.552,5.027,6.376C4.829,8.054,4.61,9.794,3.433,10.961c-0.031,0.042-0.062,0.073-0.083,0.095
					c0.417,0.322,2.199,0.75,5.158,0.75S13.249,11.378,13.666,11.056z"/>
			</g>
			<g>
				<path fill="#010101" d="M10.77,13.118c0,0.031,0,0.062,0,0.094c0,1.262-1.021,2.283-2.283,2.283
					c-1.261,0-2.282-1.021-2.282-2.283c0-0.031,0-0.062,0-0.094c0.344,0.031,0.698,0.053,1.042,0.073c0,0.011,0,0.011,0,0.021
					c0,0.678,0.563,1.23,1.24,1.23s1.23-0.553,1.23-1.23c0-0.01,0-0.01,0-0.021C10.071,13.181,10.414,13.16,10.77,13.118z"/>
			</g>
			<g>
				<path fill="#010101" d="M10.551,12.243c0.135,0.281,0.208,0.573,0.219,0.875c-0.355,0.042-0.698,0.062-1.053,0.073
					c0-0.062,0-0.125-0.011-0.177c-0.792,0.031-1.646,0.031-2.438,0c-0.01,0.052-0.021,0.114-0.021,0.177
					c-0.344-0.021-0.698-0.042-1.042-0.073c0.01-0.302,0.083-0.594,0.219-0.875c0.083-0.198,0.281-0.312,0.5-0.302
					c1,0.052,2.125,0.052,3.126,0C10.269,11.931,10.457,12.045,10.551,12.243z"/>
			</g>
			<g>
				<path fill="#010101" d="M9.706,13.015c0.011,0.052,0.011,0.114,0.011,0.177c-0.407,0.011-0.813,0.021-1.209,0.021
					c-0.407,0-0.833-0.01-1.261-0.021c0-0.062,0.011-0.125,0.021-0.177C8.06,13.046,8.914,13.046,9.706,13.015z"/>
			</g>
		</g>
		<g>
			<g>
				<path fill="#010101" d="M8.507,13.682c-0.41,0-0.841-0.01-1.271-0.02c-0.403-0.024-0.743-0.046-1.074-0.076
					c-2.66-0.209-4.164-0.819-4.592-1.863c-0.137-0.316-0.362-1.167,0.537-2.081c0.724-0.723,0.891-2.067,1.067-3.49
					c0.307-2.542,0.728-6.019,5.3-6.133c4.639,0.114,5.06,3.593,5.366,6.133c0.177,1.423,0.345,2.768,1.064,3.487
					c0.9,0.917,0.676,1.768,0.537,2.091c-0.427,1.05-1.944,1.66-4.641,1.857c-0.345,0.042-0.702,0.062-1.07,0.075
					C9.317,13.672,8.908,13.682,8.507,13.682z M8.475,0.958C4.738,1.052,4.417,3.701,4.108,6.263
					C3.91,7.855,3.724,9.354,2.774,10.304c-0.479,0.486-0.417,0.87-0.337,1.056c0.128,0.313,0.75,1.049,3.804,1.29
					c0.327,0.029,0.658,0.051,0.98,0.069c0.908,0.024,1.665,0.022,2.483,0.003c0.338-0.011,0.667-0.029,1.007-0.07
					c2.197-0.16,3.598-0.628,3.863-1.283c0.083-0.193,0.144-0.578-0.338-1.067c-0.944-0.945-1.132-2.445-1.329-4.033
					C12.598,3.702,12.277,1.052,8.475,0.958z"/>
			</g>
			<g>
				<path fill="#010101" d="M8.507,12.275c-3.003,0-4.899-0.426-5.446-0.848l-0.423-0.327l0.463-0.474
					c1.076-1.064,1.271-2.713,1.459-4.306c0.315-2.586,0.586-4.818,3.914-4.906c3.394,0.087,3.666,2.32,3.981,4.904
					c0.202,1.624,0.405,3.265,1.458,4.308l0.381,0.378l-0.341,0.423C13.407,11.85,11.512,12.275,8.507,12.275z M4.127,10.884
					c0.717,0.209,2.165,0.452,4.38,0.452c2.212,0,3.66-0.242,4.377-0.451c-0.959-1.197-1.161-2.83-1.358-4.413
					c-0.366-3.011-0.702-4.056-3.052-4.117C6.188,2.416,5.856,3.46,5.494,6.433C5.316,7.935,5.117,9.617,4.127,10.884z"/>
			</g>
			<g>
				<path fill="#010101" d="M8.487,15.965c-1.518,0-2.752-1.234-2.752-2.753l0-0.11C5.748,12.735,5.837,12.378,6,12.04
					c0.141-0.337,0.496-0.569,0.895-0.569c1.09,0.054,2.145,0.052,3.13,0.001c0.001,0,0.003,0,0.004,0
					c0.438,0,0.779,0.219,0.946,0.571c0.161,0.334,0.25,0.692,0.263,1.06v0.109C11.238,14.73,10.004,15.965,8.487,15.965z
					 M6.899,12.41c-0.159,0.259-0.217,0.488-0.226,0.725c0,1.076,0.813,1.89,1.813,1.89c0.999,0,1.812-0.813,1.812-1.812
					c-0.008-0.316-0.064-0.541-0.172-0.764c-0.562-0.013-1.102,0.002-1.64,0.002C7.947,12.45,7.408,12.437,6.899,12.41z"/>
			</g>
			<g>
				<path fill="#010101" d="M8.487,14.912c-0.943,0-1.71-0.763-1.71-1.7c0-0.115,0.015-0.21,0.03-0.29l0.079-0.394l0.4,0.017
					c0.78,0.031,1.621,0.031,2.401,0l0.396-0.017l0.082,0.39c0.021,0.101,0.021,0.197,0.021,0.273
					C10.187,14.149,9.424,14.912,8.487,14.912z M7.776,13.5c0.118,0.274,0.396,0.472,0.71,0.472c0.317,0,0.589-0.195,0.703-0.472
					C8.723,13.512,8.245,13.513,7.776,13.5z"/>
			</g>
		</g>
	</g>
</g>
</svg>
