<?xml version="1.0" encoding="utf-8"?>
<!-- Generator: Adobe Illustrator 16.0.0, SVG Export Plug-In . SVG Version: 6.00 Build 0)  -->
<!DOCTYPE svg PUBLIC "-//W3C//DTD SVG 1.1//EN" "http://www.w3.org/Graphics/SVG/1.1/DTD/svg11.dtd">
<svg version="1.1" id="Layer_1" xmlns="http://www.w3.org/2000/svg" xmlns:xlink="http://www.w3.org/1999/xlink" x="0px" y="0px"
	 width="24px" height="24px" viewBox="385.833 827.834 24 24" enable-background="new 385.833 827.834 24 24" xml:space="preserve">
<path d="M406.311,845.205c-0.761,0-0.761,0-0.761,0.762c0,0.761,0,0.761,0.761,0.761c0.762,0,0.762,0,0.762-0.761
	C407.073,845.205,407.093,845.205,406.311,845.205z M400.139,845.205c-0.762,0-0.762,0-0.762,0.762c0,0.761,0,0.761,0.762,0.761
	c0.761,0,0.761,0,0.761-0.761C400.9,845.205,400.92,845.205,400.139,845.205z M397.072,845.205c-0.762,0-0.762,0-0.762,0.762
	c0,0.761,0,0.761,0.762,0.761s0.762,0,0.762-0.761C397.834,845.205,397.834,845.205,397.072,845.205z M406.311,842.118
	c-0.761,0-0.761,0-0.761,0.762s0,0.762,0.761,0.762c0.762,0,0.762,0,0.762-0.762C407.093,842.118,407.093,842.118,406.311,842.118z
	 M397.072,842.118c-0.762,0-0.762,0-0.762,0.762s0,0.762,0.762,0.762s0.762,0,0.762-0.762S397.834,842.118,397.072,842.118z
	 M406.311,839.053c-0.761,0-0.761,0-0.761,0.762c0,0.761,0,0.761,0.761,0.761c0.762,0,0.762,0,0.762-0.761
	C407.073,839.053,407.093,839.053,406.311,839.053z M397.072,839.053c-0.762,0-0.762,0-0.762,0.762c0,0.761,0,0.761,0.762,0.761
	s0.762,0,0.762-0.761C397.834,839.053,397.834,839.053,397.072,839.053z M406.311,835.967c-0.761,0-0.761,0-0.761,0.761
	s0,0.761,0.761,0.761c0.762,0,0.762,0,0.762-0.761C407.093,835.967,407.093,835.967,406.311,835.967z M400.139,835.967
	c-0.762,0-0.762,0-0.762,0.761s0,0.761,0.762,0.761c0.761,0,0.761,0,0.761-0.761C400.92,835.967,400.92,835.967,400.139,835.967z
	 M397.072,835.967c-0.762,0-0.762,0-0.762,0.761s0,0.761,0.762,0.761s0.762,0,0.762-0.761S397.834,835.967,397.072,835.967z
	 M390.118,848.291V832.88h2.305v1.543h7.716v-1.543h2.304v15.411H390.118z M396.291,832.098c-0.441,0-0.762-0.339-0.762-0.762
	c0-0.44,0.341-0.761,0.762-0.761c0.441,0,0.762,0.341,0.762,0.761C397.072,831.759,396.732,832.098,396.291,832.098z
	 M389.356,849.834h13.868c0.762,0,0.762,0,0.762-0.762v-16.954c0-0.762,0-0.762-0.762-0.762h-4.629v-0.761
	c0-0.762,0-0.762-0.761-0.762h-3.086c-0.761,0-0.761,0-0.761,0.762v0.761h-4.63c-0.762,0-0.762,0-0.762,0.762v16.954
	C388.575,849.834,388.575,849.834,389.356,849.834z"/>
</svg>
