<?xml version="1.0" encoding="utf-8"?>
<!-- Generator: Adobe Illustrator 16.0.0, SVG Export Plug-In . SVG Version: 6.00 Build 0)  -->
<!DOCTYPE svg PUBLIC "-//W3C//DTD SVG 1.1//EN" "http://www.w3.org/Graphics/SVG/1.1/DTD/svg11.dtd">
<svg version="1.1" id="Layer_1" xmlns="http://www.w3.org/2000/svg" xmlns:xlink="http://www.w3.org/1999/xlink" x="0px" y="0px"
	 width="16px" height="16px" viewBox="0 0 16 16" enable-background="new 0 0 16 16" xml:space="preserve">
<path d="M9.946,7.005V4.021c0-2.193-1.783-3.979-3.979-3.979c-2.194,0-3.979,1.785-3.979,3.979v2.984C0.89,7.005,0,7.897,0,8.994
	v4.975c0,1.1,0.891,1.989,1.989,1.989h7.959c1.099,0,1.988-0.892,1.988-1.989V8.994C11.937,7.896,11.046,7.005,9.946,7.005z
	 M6.465,11.827v1.644c0,0.275-0.222,0.498-0.497,0.498s-0.497-0.223-0.497-0.498v-1.644c-0.292-0.175-0.498-0.479-0.498-0.843
	c0-0.551,0.446-0.995,0.995-0.995s0.995,0.444,0.995,0.995C6.963,11.348,6.757,11.652,6.465,11.827z M7.957,7.005H3.979V4.021
	c0-1.098,0.892-1.989,1.989-1.989c1.098,0,1.989,0.892,1.989,1.989V7.005z"/>
</svg>
