<?xml version="1.0" encoding="utf-8"?>
<!-- Generator: Adobe Illustrator 16.0.0, SVG Export Plug-In . SVG Version: 6.00 Build 0)  -->
<!DOCTYPE svg PUBLIC "-//W3C//DTD SVG 1.1//EN" "http://www.w3.org/Graphics/SVG/1.1/DTD/svg11.dtd">
<svg version="1.1" id="Layer_1" xmlns="http://www.w3.org/2000/svg" xmlns:xlink="http://www.w3.org/1999/xlink" x="0px" y="0px"
	 width="24px" height="24px" viewBox="0 0 24 24" enable-background="new 0 0 24 24" xml:space="preserve">
<path d="M20,0H5L0,5v15c0,2.2,1.8,4,4,4h1h2h10c1.894,0,3.482-1.336,3.892-3.109C22.664,20.482,24,18.893,24,17V4
	C24,1.8,22.2,0,20,0z M5,22H4c-1.103,0-2-0.897-2-2V7c0-1.103,0.897-2,2-2h1V22z M19,20c0,1.103-0.897,2-2,2H7V5h10
	c1.103,0,2,0.897,2,2V20z M22,17c0,0.736-0.405,1.375-1,1.722V7c0-2.2-1.8-4-4-4H5.278C5.625,2.405,6.264,2,7,2h13
	c1.103,0,2,0.897,2,2V17z"/>
</svg>
