<?xml version="1.0" encoding="utf-8"?>
<!-- Generator: Adobe Illustrator 16.0.0, SVG Export Plug-In . SVG Version: 6.00 Build 0)  -->
<!DOCTYPE svg PUBLIC "-//W3C//DTD SVG 1.1//EN" "http://www.w3.org/Graphics/SVG/1.1/DTD/svg11.dtd">
<svg version="1.1" id="Layer_1" xmlns="http://www.w3.org/2000/svg" xmlns:xlink="http://www.w3.org/1999/xlink" x="0px" y="0px"
	 width="16px" height="16px" viewBox="0 0 16 16" enable-background="new 0 0 16 16" xml:space="preserve">
<path d="M11.978,7.005V4.021c0-2.193-1.782-3.979-3.979-3.979c-2.194,0-3.979,1.785-3.979,3.979v2.984
	c-1.097,0-1.987,0.892-1.987,1.989v4.975c0,1.1,0.891,1.989,1.989,1.989h7.959c1.099,0,1.987-0.892,1.987-1.989V8.994
	C13.97,7.896,13.078,7.005,11.978,7.005z M8.497,11.827v1.644c0,0.275-0.222,0.498-0.497,0.498c-0.275,0-0.497-0.223-0.497-0.498
	v-1.644c-0.292-0.175-0.498-0.479-0.498-0.843c0-0.551,0.446-0.995,0.995-0.995s0.995,0.444,0.995,0.995
	C8.995,11.348,8.789,11.652,8.497,11.827z M9.989,7.005H6.011V4.021c0-1.098,0.892-1.989,1.989-1.989
	c1.098,0,1.989,0.892,1.989,1.989V7.005z"/>
</svg>
