<?xml version="1.0" encoding="utf-8"?>
<!-- Generator: Adobe Illustrator 16.0.0, SVG Export Plug-In . SVG Version: 6.00 Build 0)  -->
<!DOCTYPE svg PUBLIC "-//W3C//DTD SVG 1.1//EN" "http://www.w3.org/Graphics/SVG/1.1/DTD/svg11.dtd">
<svg version="1.1" id="Layer_1" xmlns="http://www.w3.org/2000/svg" xmlns:xlink="http://www.w3.org/1999/xlink" x="0px" y="0px"
	 width="16px" height="16px" viewBox="0 0 16 16" enable-background="new 0 0 16 16" xml:space="preserve">
<g>
	<path d="M15.3,7.798C13.768,5.186,11.041,3.62,8.007,3.62c-3.035,0-5.76,1.566-7.295,4.178c-0.081,0.129-0.081,0.275,0,0.407
		c1.535,2.61,4.26,4.176,7.295,4.176c3.034,0,5.761-1.566,7.293-4.176C15.365,8.09,15.365,7.927,15.3,7.798z M8.007,11.582
		c-2.661,0-5.06-1.32-6.463-3.573c1.403-2.235,3.802-3.576,6.463-3.576c2.659,0,5.056,1.34,6.461,3.576
		C13.062,10.244,10.666,11.582,8.007,11.582z"/>
	<path d="M8,5.146C6.434,5.146,5.146,6.435,5.146,8c0,1.568,1.288,2.857,2.854,2.857S10.855,9.568,10.855,8
		C10.855,6.435,9.566,5.146,8,5.146z"/>
</g>
</svg>
