<?xml version="1.0" encoding="utf-8"?>
<!-- Generator: Adobe Illustrator 16.0.0, SVG Export Plug-In . SVG Version: 6.00 Build 0)  -->
<!DOCTYPE svg PUBLIC "-//W3C//DTD SVG 1.1//EN" "http://www.w3.org/Graphics/SVG/1.1/DTD/svg11.dtd">
<svg version="1.1" id="Layer_1" xmlns="http://www.w3.org/2000/svg" xmlns:xlink="http://www.w3.org/1999/xlink" x="0px" y="0px"
	 width="16px" height="16px" viewBox="0 0 16 16" enable-background="new 0 0 16 16" xml:space="preserve">
<g>
	<rect x="7.081" y="2.05" width="1.559" height="2.637"/>
	<path d="M14.462,2.723H9.061v1.013h5.764v8.519H1.252V3.736H6.66V2.723H1.611c-0.82,0-1.492,0.672-1.492,1.492v7.577
		c0,0.819,0.672,1.484,1.492,1.484h12.851c0.818,0,1.491-0.665,1.491-1.484V4.215C15.953,3.396,15.28,2.723,14.462,2.723z"/>
</g>
<g>
	<g>
		<path d="M11.309,5.685L10.313,4.69c-0.132-0.131-0.364-0.131-0.496,0L8.916,5.591L5.436,9.07C5.405,9.104,5.38,9.139,5.362,9.18
			l-0.745,1.74c-0.056,0.133-0.026,0.285,0.075,0.387c0.066,0.066,0.157,0.102,0.248,0.102c0.047,0,0.094-0.008,0.139-0.027
			l1.739-0.746c0.042-0.016,0.079-0.041,0.109-0.074l3.481-3.479l0.9-0.901c0.064-0.066,0.103-0.155,0.103-0.248
			C11.411,5.84,11.373,5.751,11.309,5.685z M6.479,10.018l-0.873,0.375l0.373-0.875l3.107-3.103l0.498,0.499L6.479,10.018z
			 M9.938,6.56l0.002,0.001C9.931,6.569,9.922,6.577,9.912,6.586L9.938,6.56l-0.499-0.5L9.412,6.086
			C9.421,6.077,9.429,6.068,9.437,6.06l0.002,0.001l0.627-0.627l0.499,0.5L9.938,6.56z"/>
		<path d="M9.438,6.061L9.412,6.086C9.42,6.077,9.429,6.068,9.437,6.06L9.438,6.061z"/>
		<path d="M9.939,6.561C9.931,6.569,9.922,6.577,9.912,6.586L9.938,6.56L9.939,6.561z"/>
	</g>
	<g>
		<path d="M9.438,6.061L9.412,6.086C9.42,6.077,9.429,6.068,9.437,6.06L9.438,6.061z"/>
		<path d="M9.939,6.561C9.931,6.569,9.922,6.577,9.912,6.586L9.938,6.56L9.939,6.561z"/>
	</g>
</g>
</svg>
