<?xml version="1.0" encoding="utf-8"?>
<!-- Generator: Adobe Illustrator 16.0.0, SVG Export Plug-In . SVG Version: 6.00 Build 0)  -->
<!DOCTYPE svg PUBLIC "-//W3C//DTD SVG 1.1//EN" "http://www.w3.org/Graphics/SVG/1.1/DTD/svg11.dtd">
<svg version="1.1" id="Layer_1" xmlns="http://www.w3.org/2000/svg" xmlns:xlink="http://www.w3.org/1999/xlink" x="0px" y="0px"
	 width="16px" height="16px" viewBox="0 0 16 16" enable-background="new 0 0 16 16" xml:space="preserve">
<g>
	<g>
		<rect x="6.949" y="1.825" width="1.716" height="2.902"/>
		<path d="M13.969,2.566H9.127v1.114h5.239v9.371H1.639V3.68h4.847V2.566H2.034c-0.902,0-1.641,0.739-1.641,1.641v8.336
			c0,0.9,0.739,1.632,1.641,1.632h11.935c0.898,0,1.639-0.731,1.639-1.632V4.206C15.607,3.306,14.867,2.566,13.969,2.566z"/>
	</g>
	<g>
		<path d="M5.906,10.596L5.471,8.007L7.027,8.63L7.96,6.761l0.934,1.87l1.556-0.622l-0.435,2.588
			c-0.063,0.311-0.311,0.526-0.625,0.526H6.497C6.216,11.121,5.938,10.906,5.906,10.596z"/>
		<circle cx="7.96" cy="6.763" r="0.621"/>
		<path d="M10.45,7.384c0.345,0,0.626,0.279,0.626,0.623S10.795,8.63,10.45,8.63c-0.344,0-0.621-0.28-0.621-0.623
			C9.829,7.664,10.106,7.384,10.45,7.384z"/>
		<path d="M5.471,7.384c0.343,0,0.621,0.279,0.621,0.623S5.814,8.63,5.471,8.63c-0.346,0-0.628-0.28-0.628-0.623
			C4.843,7.664,5.124,7.384,5.471,7.384z"/>
	</g>
</g>
</svg>
