<?xml version="1.0" encoding="utf-8"?>
<!-- Generator: Adobe Illustrator 16.0.0, SVG Export Plug-In . SVG Version: 6.00 Build 0)  -->
<!DOCTYPE svg PUBLIC "-//W3C//DTD SVG 1.1//EN" "http://www.w3.org/Graphics/SVG/1.1/DTD/svg11.dtd">
<svg version="1.1" id="Layer_1" xmlns="http://www.w3.org/2000/svg" xmlns:xlink="http://www.w3.org/1999/xlink" x="0px" y="0px"
	 width="16px" height="16px" viewBox="0.469 0.562 16 16" enable-background="new 0.469 0.562 16 16" xml:space="preserve">
<g>
	<rect x="7.55" y="2.613" width="1.559" height="2.637"/>
	<path d="M14.931,3.286H9.529v1.013h5.764v8.519H1.721V4.298h5.408V3.286H2.08c-0.82,0-1.492,0.672-1.492,1.492v7.577
		c0,0.819,0.672,1.484,1.492,1.484h12.851c0.818,0,1.491-0.665,1.491-1.484V4.777C16.422,3.958,15.749,3.286,14.931,3.286z"/>
</g>
<g>
	<path d="M6.601,10.585L6.206,8.233l1.414,0.565L8.469,7.1l0.85,1.699l1.414-0.565l-0.396,2.352
		c-0.057,0.282-0.282,0.478-0.567,0.478H7.138C6.883,11.062,6.63,10.867,6.601,10.585z"/>
	<circle cx="8.469" cy="7.101" r="0.565"/>
	<path d="M10.732,7.666c0.314,0,0.57,0.254,0.57,0.567c0,0.312-0.256,0.565-0.57,0.565c-0.312,0-0.564-0.254-0.564-0.565
		C10.168,7.92,10.42,7.666,10.732,7.666z"/>
	<path d="M6.206,7.666c0.312,0,0.564,0.254,0.564,0.567c0,0.312-0.252,0.565-0.564,0.565c-0.315,0-0.571-0.254-0.571-0.565
		C5.635,7.92,5.89,7.666,6.206,7.666z"/>
</g>
</svg>
