<?xml version="1.0" encoding="utf-8"?>
<!-- Generator: Adobe Illustrator 16.0.0, SVG Export Plug-In . SVG Version: 6.00 Build 0)  -->
<!DOCTYPE svg PUBLIC "-//W3C//DTD SVG 1.1//EN" "http://www.w3.org/Graphics/SVG/1.1/DTD/svg11.dtd">
<svg version="1.1" id="Layer_1" xmlns="http://www.w3.org/2000/svg" xmlns:xlink="http://www.w3.org/1999/xlink" x="0px" y="0px"
	 width="16px" height="16px" viewBox="0 0 16 16" enable-background="new 0 0 16 16" xml:space="preserve">
<g>
	<path d="M12.866,8.236C11.845,6.495,10.027,5.45,8.004,5.45s-3.84,1.044-4.863,2.786c-0.054,0.086-0.054,0.184,0,0.271
		c1.023,1.74,2.84,2.784,4.863,2.784s3.84-1.044,4.862-2.784C12.91,8.431,12.91,8.322,12.866,8.236z M8.004,10.759
		c-1.774,0-3.373-0.881-4.309-2.382c0.936-1.49,2.535-2.384,4.309-2.384c1.773,0,3.371,0.894,4.307,2.384
		C11.375,9.867,9.777,10.759,8.004,10.759z"/>
	<path d="M8,6.468c-1.044,0-1.903,0.859-1.903,1.903c0,1.045,0.859,1.904,1.903,1.904s1.903-0.859,1.903-1.904
		C9.903,7.327,9.044,6.468,8,6.468z"/>
	<path d="M8,7.555c-0.445,0-0.815,0.371-0.815,0.816c0,0.445,0.37,0.817,0.815,0.817s0.815-0.372,0.815-0.817
		C8.815,7.925,8.445,7.555,8,7.555z M8,8.643c-0.153,0-0.272-0.118-0.272-0.271C7.728,8.218,7.847,8.1,8,8.1
		s0.272,0.119,0.272,0.271C8.272,8.524,8.153,8.643,8,8.643z"/>
	<g>
		<rect x="6.949" y="1.825" width="1.716" height="2.902"/>
		<path d="M13.969,2.566H9.127v1.114h5.239v9.371H1.639V3.68h4.847V2.566H2.034c-0.902,0-1.641,0.739-1.641,1.641v8.336
			c0,0.9,0.739,1.632,1.641,1.632h11.935c0.898,0,1.639-0.731,1.639-1.632V4.206C15.607,3.306,14.867,2.566,13.969,2.566z"/>
	</g>
</g>
</svg>
