<?xml version="1.0" encoding="utf-8"?>
<!-- Generator: Adobe Illustrator 16.0.0, SVG Export Plug-In . SVG Version: 6.00 Build 0)  -->
<!DOCTYPE svg PUBLIC "-//W3C//DTD SVG 1.1//EN" "http://www.w3.org/Graphics/SVG/1.1/DTD/svg11.dtd">
<svg version="1.1" id="Layer_1" xmlns="http://www.w3.org/2000/svg" xmlns:xlink="http://www.w3.org/1999/xlink" x="0px" y="0px"
	 width="16px" height="16px" viewBox="0 0 16 16" enable-background="new 0 0 16 16" xml:space="preserve">
<g>
	<rect x="7.081" y="2.05" width="1.559" height="2.637"/>
	<path d="M14.462,2.723H9.061v1.013h5.764v8.519H1.252V3.736H6.66V2.723H1.611c-0.82,0-1.492,0.672-1.492,1.492v7.577
		c0,0.819,0.672,1.484,1.492,1.484h12.851c0.818,0,1.491-0.665,1.491-1.484V4.215C15.953,3.396,15.28,2.723,14.462,2.723z"/>
</g>
<path d="M12.424,7.877c-0.929-1.583-2.581-2.532-4.42-2.532c-1.839,0-3.491,0.949-4.421,2.532c-0.049,0.078-0.049,0.167,0,0.246
	c0.93,1.583,2.582,2.532,4.421,2.532c1.839,0,3.491-0.949,4.42-2.532C12.464,8.054,12.464,7.955,12.424,7.877z M8.004,10.171
	c-1.613,0-3.066-0.801-3.917-2.166C4.938,6.65,6.391,5.838,8.004,5.838c1.612,0,3.065,0.812,3.916,2.167
	C11.069,9.359,9.616,10.171,8.004,10.171z"/>
<path d="M8,6.27C7.051,6.27,6.27,7.051,6.27,8c0,0.95,0.781,1.73,1.73,1.73S9.73,8.95,9.73,8C9.73,7.051,8.949,6.27,8,6.27z"/>
<path d="M8,7.258C7.595,7.258,7.259,7.595,7.259,8S7.595,8.742,8,8.742S8.741,8.405,8.741,8S8.405,7.258,8,7.258z M8,8.247
	C7.861,8.247,7.753,8.139,7.753,8S7.861,7.753,8,7.753S8.247,7.861,8.247,8S8.139,8.247,8,8.247z"/>
</svg>
