<?xml version="1.0" encoding="utf-8"?>
<!-- Generator: Adobe Illustrator 16.0.0, SVG Export Plug-In . SVG Version: 6.00 Build 0)  -->
<!DOCTYPE svg PUBLIC "-//W3C//DTD SVG 1.1//EN" "http://www.w3.org/Graphics/SVG/1.1/DTD/svg11.dtd">
<svg version="1.1" id="Layer_1" xmlns="http://www.w3.org/2000/svg" xmlns:xlink="http://www.w3.org/1999/xlink" x="0px" y="0px"
	 width="16px" height="16px" viewBox="0 0 16 16" enable-background="new 0 0 16 16" xml:space="preserve">
<g>
	<g>
		<rect x="6.949" y="1.826" width="1.716" height="2.901"/>
		<path d="M13.967,2.566h-4.84v1.114h5.24v9.37H1.639v-9.37h4.848V2.566H2.033c-0.902,0-1.641,0.739-1.641,1.641v8.334
			c0,0.902,0.739,1.633,1.641,1.633h11.934c0.899,0,1.641-0.73,1.641-1.633V4.208C15.607,3.307,14.866,2.566,13.967,2.566z"/>
	</g>
	<g>
		<g>
			<path d="M11.6,5.825L10.504,4.73c-0.144-0.144-0.399-0.144-0.546,0l-0.99,0.991L5.14,9.549c-0.034,0.037-0.062,0.075-0.082,0.12
				l-0.819,1.915c-0.062,0.146-0.029,0.313,0.082,0.425c0.073,0.073,0.173,0.112,0.273,0.112c0.051,0,0.104-0.009,0.153-0.03
				L6.66,11.27c0.046-0.017,0.087-0.045,0.12-0.079l3.83-3.828l0.99-0.991c0.07-0.073,0.113-0.171,0.113-0.273
				C11.713,5.995,11.671,5.897,11.6,5.825z M6.287,10.591l-0.96,0.413l0.411-0.963l3.417-3.414l0.549,0.549L6.287,10.591z
				 M10.092,6.787l0.002,0.001c-0.009,0.009-0.02,0.018-0.03,0.027L10.092,6.787l-0.548-0.55l-0.03,0.028
				c0.01-0.01,0.02-0.02,0.027-0.028l0.003,0.001l0.689-0.689l0.548,0.55L10.092,6.787z"/>
			<path d="M9.541,6.238L9.514,6.266C9.522,6.256,9.533,6.246,9.541,6.238L9.541,6.238z"/>
			<path d="M10.094,6.788c-0.009,0.009-0.02,0.018-0.03,0.027l0.028-0.028L10.094,6.788z"/>
		</g>
		<g>
			<path d="M9.541,6.238L9.514,6.266C9.522,6.256,9.533,6.246,9.541,6.238L9.541,6.238z"/>
			<path d="M10.094,6.788c-0.009,0.009-0.02,0.018-0.03,0.027l0.028-0.028L10.094,6.788z"/>
		</g>
	</g>
</g>
</svg>
