<?xml version="1.0" encoding="utf-8"?>
<!-- Generator: Adobe Illustrator 16.0.0, SVG Export Plug-In . SVG Version: 6.00 Build 0)  -->
<!DOCTYPE svg PUBLIC "-//W3C//DTD SVG 1.1//EN" "http://www.w3.org/Graphics/SVG/1.1/DTD/svg11.dtd">
<svg version="1.1" id="Layer_1" xmlns="http://www.w3.org/2000/svg" xmlns:xlink="http://www.w3.org/1999/xlink" x="0px" y="0px"
	 width="16px" height="16px" viewBox="0 0 16 16" enable-background="new 0 0 16 16" xml:space="preserve">
<g>
	<path d="M3.379,12.418L2.401,6.594l3.5,1.401L8.002,3.79l2.101,4.207l3.5-1.399l-0.977,5.823c-0.145,0.699-0.699,1.184-1.406,1.184
		H4.708C4.077,13.6,3.451,13.115,3.379,12.418z"/>
	<circle cx="8.002" cy="3.794" r="1.398"/>
	<path d="M13.604,5.192c0.777,0,1.41,0.628,1.41,1.402s-0.633,1.401-1.41,1.401c-0.773,0-1.396-0.63-1.396-1.401
		C12.207,5.82,12.83,5.192,13.604,5.192z"/>
	<path d="M2.401,5.192c0.773,0,1.397,0.628,1.397,1.402S3.174,7.995,2.401,7.995c-0.779,0-1.415-0.63-1.415-1.401
		C0.987,5.82,1.62,5.192,2.401,5.192z"/>
</g>
</svg>
