<?xml version="1.0" encoding="utf-8"?>
<!-- Generator: Adobe Illustrator 16.0.0, SVG Export Plug-In . SVG Version: 6.00 Build 0)  -->
<!DOCTYPE svg PUBLIC "-//W3C//DTD SVG 1.1//EN" "http://www.w3.org/Graphics/SVG/1.1/DTD/svg11.dtd">
<svg version="1.1"
	 id="Layer_1" xmlns:dc="http://purl.org/dc/elements/1.1/" xmlns:rdf="http://www.w3.org/1999/02/22-rdf-syntax-ns#" xmlns:cc="http://creativecommons.org/ns#" xmlns:svg="http://www.w3.org/2000/svg"
	 xmlns="http://www.w3.org/2000/svg" xmlns:xlink="http://www.w3.org/1999/xlink" x="0px" y="0px" width="28px" height="16px"
	 viewBox="0 0 28 16" enable-background="new 0 0 28 16" xml:space="preserve">
<g>
	<g opacity="0.8">
		<path fill="#405950" d="M11.888,12.83c-0.039,0-0.079-0.01-0.116-0.029c-0.124-0.064-0.172-0.219-0.107-0.342
			c0.01-0.018,0.965-1.854,1.08-2.936c0.106-0.998-0.091-1.969-0.174-2.317c-0.001-0.005-0.011-0.039-0.011-0.039l0.406-0.396
			c0,0,0.045,0.122,0.056,0.161c0.016,0.053,0.367,1.306,0.226,2.643c-0.126,1.178-1.094,3.039-1.135,3.117
			C12.067,12.779,11.979,12.83,11.888,12.83z"/>
	</g>
	<g id="triangles">
		<g>
			<g>
				<polygon fill="#87BFD1" fill-opacity="0.3804" points="9.015,1.465 7.138,3.737 6.201,0.894 				"/>
				<polygon fill="#448CCA" fill-opacity="0.2706" points="5.809,4.695 0.842,8.973 0.396,2.736 				"/>
				<polygon fill="#589A43" fill-opacity="0.3804" points="0.859,9.568 0.722,9.082 0.487,4.055 				"/>
				<polygon fill="#F68E57" fill-opacity="0.3804" points="0.413,3.34 2.935,0.38 7.614,1.076 				"/>
				<polygon fill="#F68E57" fill-opacity="0.3804" points="5.574,0.16 8.748,1.455 3.575,0.475 				"/>
				<polygon fill="#9F4322" fill-opacity="0.3804" points="7.918,0.878 7.366,0.569 7.384,1.321 				"/>
				<polygon fill="#9F4322" fill-opacity="0.3804" points="8.018,0.656 7.675,1.451 8.801,1.304 				"/>
				<polygon fill="#9F4322" fill-opacity="0.3804" points="8.454,0.996 7.419,1.463 7.523,0.286 				"/>
				<polygon fill="#A14323" fill-opacity="0.3804" points="8.866,2.41 8.422,1.389 9.471,1.489 				"/>
				<polygon fill="#F89520" fill-opacity="0.3804" points="5.879,0 6.429,1.663 7.522,0.334 				"/>
				<polygon fill="#FAAF5E" fill-opacity="0.3804" points="7.162,1.711 7.019,0.178 8.36,0.831 				"/>
				<polygon fill="#F68E57" fill-opacity="0.3804" points="8.822,1.495 2.416,2.951 8.344,0.791 				"/>
				<polygon fill="#974021" fill-opacity="0.3765" points="9.136,2.406 9.693,1.338 8.526,1.371 				"/>
				<polygon fill="#1C7B3E" fill-opacity="0.3804" points="8.977,2.174 13.994,4.8 11.146,9.062 				"/>
				<polygon fill="#8AD1CA" fill-opacity="0.3804" points="8.811,2.022 7.481,11.189 11.3,8.631 				"/>
				<polygon fill="#F68E57" fill-opacity="0.3804" points="0.41,3.345 8.838,1.269 2.475,0.919 				"/>
				<polygon fill="#A04323" fill-opacity="0.3804" points="2.475,0.919 1.481,1.521 2.12,2.357 				"/>
				<polygon fill="#A04323" fill-opacity="0.3804" points="0.396,2.736 1.935,3.13 1.481,1.521 				"/>
				<polygon fill="#82CA9C" fill-opacity="0.3804" points="6.437,4.358 4.623,11.26 8.879,2.452 				"/>
				<polygon fill="#F68E57" fill-opacity="0.3804" points="4.879,12.666 2.651,16 2.56,14.355 				"/>
				<polygon fill="#82CA9C" fill-opacity="0.3804" points="3.557,13.391 7.504,11.17 8.754,1.727 				"/>
				<polygon fill="#6EC498" fill-opacity="0.3804" points="0.6,8.881 5.811,4.687 2.975,15.525 				"/>
				<polygon fill="#6BC7BC" fill-opacity="0.3804" points="0.824,9.008 8.809,1.648 0.433,3.315 				"/>
				<polygon fill="#FAAF5E" fill-opacity="0.3804" points="0.866,9.668 0.396,2.736 0,5.046 				"/>
				<polygon fill="#82CA9C" fill-opacity="0.3804" points="4.878,10.291 5.847,5.194 8.796,2.398 				"/>
				<polygon fill="#FDC789" fill-opacity="0.3804" points="8.317,2.669 8.114,2.214 7.831,2.619 				"/>
				<polygon fill="#FDC789" fill-opacity="0.3804" points="8.904,2.597 8.368,1.769 7.96,2.669 				"/>
				<polygon fill="#FDC789" fill-opacity="0.3804" points="2.722,14.203 5.091,5.996 4.854,12.676 				"/>
				<polygon fill="#A14423" fill-opacity="0.3804" points="9.891,1.427 9.203,1.359 9.495,2.014 				"/>
				<polygon fill="#82CA9C" fill-opacity="0.3804" points="8.897,1.384 10.009,3.469 11.171,1.419 				"/>
				<polygon fill="#FDC789" fill-opacity="0.3804" points="9.313,2.76 9.314,1.23 8.051,1.995 				"/>
				<polygon fill="#87BFD1" fill-opacity="0.3804" points="5.214,4.976 0.829,6.903 4.615,9.926 				"/>
				<polygon fill="#87BFD1" fill-opacity="0.3804" points="3.279,7.801 1.118,9.727 0.612,6.801 				"/>
				<polygon fill="#87BFD1" fill-opacity="0.3804" points="0.615,3.036 0.861,3.822 1.385,3.202 				"/>
				<polygon fill="#87BFD1" fill-opacity="0.3804" points="1.632,4.245 2.741,3.197 1.321,2.713 				"/>
				<polygon fill="#87BFD1" fill-opacity="0.3804" points="3.174,5.135 1.721,2.189 4.878,2.343 				"/>
				<polygon fill="#87BFD1" fill-opacity="0.3804" points="6.364,4.367 3.829,2.38 6.736,1.074 				"/>
				<polygon fill="#82CA9C" fill-opacity="0.3804" points="9.968,4.893 12.916,2.257 9.27,0.891 				"/>
				<polygon fill="#82CA9C" fill-opacity="0.3804" points="10.198,4.603 13.909,5.102 13.026,2.298 				"/>
				<polygon fill="#03A750" fill-opacity="0.3804" points="10.593,5.841 10.459,9.141 12.487,7.376 				"/>
				<polygon fill="#87BFD1" fill-opacity="0.3804" points="6.603,5.09 10.086,6.044 9.131,2.402 				"/>
				<polygon fill="#87BFD1" fill-opacity="0.3804" points="10.286,5.413 8.017,9.051 6.149,5.17 				"/>
				<polygon fill="#87BFD1" fill-opacity="0.3804" points="8.616,9.598 8.494,7.762 7.041,8.789 				"/>
				<polygon fill="#87BFD1" fill-opacity="0.3804" points="8.77,9.375 7.613,10.605 7.177,8.939 				"/>
				<polygon fill="#FDC789" fill-opacity="0.3804" points="10.973,1.454 11.782,1.582 11.271,2.255 				"/>
				<polygon fill="#FDC789" fill-opacity="0.3804" points="11.586,1.549 12.438,1.987 11.651,2.544 				"/>
				<polygon fill="#FDC789" fill-opacity="0.3804" points="12.357,1.894 12.357,2.701 13.026,2.298 				"/>
				<polygon fill="#FDC789" fill-opacity="0.3804" points="12.057,5.089 13.909,5.102 12.97,6.78 				"/>
				<polygon fill="#FDC789" fill-opacity="0.3804" points="11.715,7.991 13.295,6.452 11.233,5.785 				"/>
				<polygon fill="#F79057" fill-opacity="0.3804" points="7.447,3.063 7.607,2.611 7.144,2.692 				"/>
				<polygon fill="#F79057" fill-opacity="0.3804" points="8.554,2.186 8.224,1.757 8.038,2.281 				"/>
				<polygon fill="#F79057" fill-opacity="0.3804" points="7.869,2.862 7.514,2.409 8.115,2.313 				"/>
				<polygon fill="#F79057" fill-opacity="0.3804" points="7.053,3.073 7.231,3.282 7.271,2.983 				"/>
				<polygon fill="#FDC789" fill-opacity="0.3804" points="7.611,2.827 7.862,2.785 7.701,2.571 				"/>
				<polygon fill="#F68C54" fill-opacity="0.3686" points="6.991,3.552 6.737,3.133 7.22,3.106 				"/>
			</g>
		</g>
	</g>
</g>
</svg>
